<svg id="Layer_1" data-name="Layer 1" xmlns="http://www.w3.org/2000/svg" viewBox="0 0 491.14 401.17"><defs><style>.cls-1{font-size:117.99px;fill:#fff;font-family:Bauhaus93, "Bauhaus 93";}.cls-2{fill:#8dc63f;}.cls-3{fill:#00884a;}.cls-4{fill:#1d7250;}.cls-5{fill:#22a565;}.cls-6{fill:#39b54a;}.cls-7{fill:#2bb673;}</style></defs><text class="cls-1" transform="translate(29.04 371.67) scale(0.95 1)">Software</text><rect class="cls-2" y="268.93" width="491.14" height="7.92" rx="1.68"/><path class="cls-3" d="M380.71,215.07c11.07,0,20,6.07,20,13.55s-9,13.55-20,13.55h-36v57.28h56.4c30.05,0,54.42-21.34,54.42-47.67v-30.2c0-25-23.09-45.17-51.57-45.17H344.73v38.66Z" transform="translate(-8.18 -54.35)"/><path class="cls-4" d="M404,55.32H326.43v46.74h37c11.07,0,20,6.06,20,13.55s-9,13.55-20,13.55H344.73v49.19h56.4c30.05,0,54.42-21.34,54.42-47.66v-30.2C455.55,75.54,432.46,55.32,404,55.32Z" transform="translate(-8.18 -54.35)"/><rect class="cls-5" x="252.9" y="0.97" width="65.35" height="244.13"/><path class="cls-2" d="M169.84,214.1c11.07,0,20,6.07,20,13.55s-9,13.55-20,13.55h-36v57.28h56.41c30,0,54.41-21.34,54.41-47.67v-30.2c0-25-23.09-45.17-51.57-45.17H133.86V214.1Z" transform="translate(-8.18 -54.35)"/><path class="cls-6" d="M193.11,54.35H115.56v46.74h37c11.07,0,20,6.06,20,13.55s-9,13.55-20,13.55H133.86v49.19h56.41c30,0,54.41-21.34,54.41-47.66V99.52C244.68,74.57,221.59,54.35,193.11,54.35Z" transform="translate(-8.18 -54.35)"/><rect class="cls-7" x="42.04" width="65.35" height="244.13"/></svg>